name ../IE_Laxity/ie_45.mot
datacolumns  10
datarows 46
range   14.00000000 14.45000000
cursor 1.0 1.0 0.0
keys m_key
wrap
enforce_loops no
enforce_constraints no
calc_derivatives -1.000000
event_color 0.000000 0.000000 0.000000
endheader
            time femur_r_force_vx femur_r_force_vy femur_r_force_vz femur_r_force_px femur_r_force_py femur_r_force_pz femur_r_torque_x femur_r_torque_y femur_r_torque_z 
     14.00000000       0.00000000       0.00000000       0.00000000      -0.05123681      -0.49427285       0.00000000      -0.07853693      -0.07853693       0.00000000 
     14.01000000       0.00000000       0.00000000       0.00000000      -0.05123681      -0.49427285       0.00000000      -0.07595960      -0.07595960       0.00000000 
     14.02000000       0.00000000       0.00000000       0.00000000      -0.05123681      -0.49427285       0.00000000      -0.07342434      -0.07342434       0.00000000 
     14.03000000       0.00000000       0.00000000       0.00000000      -0.05123681      -0.49427285       0.00000000      -0.07093122      -0.07093122       0.00000000 
     14.04000000       0.00000000       0.00000000       0.00000000      -0.05123681      -0.49427285       0.00000000      -0.06848029      -0.06848029       0.00000000 
     14.05000000       0.00000000       0.00000000       0.00000000      -0.05123681      -0.49427285       0.00000000      -0.06607162      -0.06607162       0.00000000 
     14.06000000       0.00000000       0.00000000       0.00000000      -0.05123681      -0.49427285       0.00000000      -0.06370526      -0.06370526       0.00000000 
     14.07000000       0.00000000       0.00000000       0.00000000      -0.05123681      -0.49427285       0.00000000      -0.06138128      -0.06138128       0.00000000 
     14.08000000       0.00000000       0.00000000       0.00000000      -0.05123681      -0.49427285       0.00000000      -0.05909973      -0.05909973       0.00000000 
     14.09000000       0.00000000       0.00000000       0.00000000      -0.05123681      -0.49427285       0.00000000      -0.05686067      -0.05686067       0.00000000 
     14.10000000       0.00000000       0.00000000       0.00000000      -0.05123681      -0.49427285       0.00000000      -0.05466415      -0.05466415       0.00000000 
     14.11000000       0.00000000       0.00000000       0.00000000      -0.05123681      -0.49427285       0.00000000      -0.05251023      -0.05251023       0.00000000 
     14.12000000       0.00000000       0.00000000       0.00000000      -0.05123681      -0.49427285       0.00000000      -0.05039897      -0.05039897       0.00000000 
     14.13000000       0.00000000       0.00000000       0.00000000      -0.05123681      -0.49427285       0.00000000      -0.04833041      -0.04833041       0.00000000 
     14.14000000       0.00000000       0.00000000       0.00000000      -0.05123681      -0.49427285       0.00000000      -0.04630460      -0.04630460       0.00000000 
     14.15000000       0.00000000       0.00000000       0.00000000      -0.05123681      -0.49427285       0.00000000      -0.04432161      -0.04432161       0.00000000 
     14.16000000       0.00000000       0.00000000       0.00000000      -0.05123681      -0.49427285       0.00000000      -0.04238147      -0.04238147       0.00000000 
     14.17000000       0.00000000       0.00000000       0.00000000      -0.05123681      -0.49427285       0.00000000      -0.04048423      -0.04048423       0.00000000 
     14.18000000       0.00000000       0.00000000       0.00000000      -0.05123681      -0.49427285       0.00000000      -0.03862995      -0.03862995       0.00000000 
     14.19000000       0.00000000       0.00000000       0.00000000      -0.05123681      -0.49427285       0.00000000      -0.03681866      -0.03681866       0.00000000 
     14.20000000       0.00000000       0.00000000       0.00000000      -0.05123681      -0.49427285       0.00000000      -0.03505042      -0.03505042       0.00000000 
     14.21000000       0.00000000       0.00000000       0.00000000      -0.05123681      -0.49427285       0.00000000      -0.03332526      -0.03332526       0.00000000 
     14.22000000       0.00000000       0.00000000       0.00000000      -0.05123681      -0.49427285       0.00000000      -0.03164324      -0.03164324       0.00000000 
     14.23000000       0.00000000       0.00000000       0.00000000      -0.05123681      -0.49427285       0.00000000      -0.03000438      -0.03000438       0.00000000 
     14.24000000       0.00000000       0.00000000       0.00000000      -0.05123681      -0.49427285       0.00000000      -0.02840874      -0.02840874       0.00000000 
     14.25000000       0.00000000       0.00000000       0.00000000      -0.05123681      -0.49427285       0.00000000      -0.02685635      -0.02685635       0.00000000 
     14.26000000       0.00000000       0.00000000       0.00000000      -0.05123681      -0.49427285       0.00000000      -0.02534725      -0.02534725       0.00000000 
     14.27000000       0.00000000       0.00000000       0.00000000      -0.05123681      -0.49427285       0.00000000      -0.02388148      -0.02388148       0.00000000 
     14.28000000       0.00000000       0.00000000       0.00000000      -0.05123681      -0.49427285       0.00000000      -0.02245908      -0.02245908       0.00000000 
     14.29000000       0.00000000       0.00000000       0.00000000      -0.05123681      -0.49427285       0.00000000      -0.02108007      -0.02108007       0.00000000 
     14.30000000       0.00000000       0.00000000       0.00000000      -0.05123681      -0.49427285       0.00000000      -0.01974450      -0.01974450       0.00000000 
     14.31000000       0.00000000       0.00000000       0.00000000      -0.05123681      -0.49427285       0.00000000      -0.01845239      -0.01845239       0.00000000 
     14.32000000       0.00000000       0.00000000       0.00000000      -0.05123681      -0.49427285       0.00000000      -0.01720379      -0.01720379       0.00000000 
     14.33000000       0.00000000       0.00000000       0.00000000      -0.05123681      -0.49427285       0.00000000      -0.01599871      -0.01599871       0.00000000 
     14.34000000       0.00000000       0.00000000       0.00000000      -0.05123681      -0.49427285       0.00000000      -0.01483720      -0.01483720       0.00000000 
     14.35000000       0.00000000       0.00000000       0.00000000      -0.05123681      -0.49427285       0.00000000      -0.01371927      -0.01371927       0.00000000 
     14.36000000       0.00000000       0.00000000       0.00000000      -0.05123681      -0.49427285       0.00000000      -0.01264497      -0.01264497       0.00000000 
     14.37000000       0.00000000       0.00000000       0.00000000      -0.05123681      -0.49427285       0.00000000      -0.01161430      -0.01161430       0.00000000 
     14.38000000       0.00000000       0.00000000       0.00000000      -0.05123681      -0.49427285       0.00000000      -0.01062731      -0.01062731       0.00000000 
     14.39000000       0.00000000       0.00000000       0.00000000      -0.05123681      -0.49427285       0.00000000      -0.00968401      -0.00968401       0.00000000 
     14.40000000       0.00000000       0.00000000       0.00000000      -0.05123681      -0.49427285       0.00000000      -0.00878443      -0.00878443       0.00000000 
     14.41000000       0.00000000       0.00000000       0.00000000      -0.05123681      -0.49427285       0.00000000      -0.00792859      -0.00792859       0.00000000 
     14.42000000       0.00000000       0.00000000       0.00000000      -0.05123681      -0.49427285       0.00000000      -0.00711651      -0.00711651       0.00000000 
     14.43000000       0.00000000       0.00000000       0.00000000      -0.05123681      -0.49427285       0.00000000      -0.00634821      -0.00634821       0.00000000 
     14.44000000       0.00000000       0.00000000       0.00000000      -0.05123681      -0.49427285       0.00000000      -0.00562371      -0.00562371       0.00000000 
     14.45000000       0.00000000       0.00000000       0.00000000      -0.05123681      -0.49427285       0.00000000      -0.00494303      -0.00494303       0.00000000 
